<svg width="255" height="153" viewBox="0 0 255 153" fill="none" xmlns="http://www.w3.org/2000/svg">
<path d="M102.203 75V46.9922H104.723V75H102.203ZM117.945 49.3945V75H115.426V49.3945H108.746V46.9922H124.625V49.3945H117.945ZM144.41 57.3633C144.41 58.3138 144.228 59.2057 143.863 60.0391C143.512 60.8724 143.023 61.6016 142.398 62.2266C141.773 62.8516 141.038 63.3464 140.191 63.7109C139.358 64.0625 138.466 64.2383 137.516 64.2383H131.168V75H128.648V46.9922H137.516C138.466 46.9922 139.358 47.1745 140.191 47.5391C141.038 47.8906 141.773 48.3789 142.398 49.0039C143.023 49.6289 143.512 50.3646 143.863 51.2109C144.228 52.0443 144.41 52.9362 144.41 53.8867V57.3633ZM141.891 53.8867C141.891 53.2617 141.773 52.6823 141.539 52.1484C141.305 51.6016 140.979 51.1263 140.562 50.7227C140.159 50.306 139.684 49.9805 139.137 49.7461C138.603 49.5117 138.023 49.3945 137.398 49.3945H131.168V61.8359H137.398C138.023 61.8359 138.603 61.7188 139.137 61.4844C139.684 61.25 140.159 60.931 140.562 60.5273C140.979 60.1237 141.305 59.6549 141.539 59.1211C141.773 58.5742 141.891 57.9883 141.891 57.3633V53.8867ZM161.793 69.5117C161.793 70.319 161.637 71.0807 161.324 71.7969C161.025 72.513 160.608 73.138 160.074 73.6719C159.54 74.2057 158.915 74.6289 158.199 74.9414C157.483 75.2409 156.721 75.3906 155.914 75.3906H154.312C153.505 75.3906 152.743 75.2409 152.027 74.9414C151.311 74.6289 150.686 74.2057 150.152 73.6719C149.618 73.138 149.195 72.513 148.883 71.7969C148.583 71.0807 148.434 70.319 148.434 69.5117V60.4883C148.434 59.681 148.583 58.9193 148.883 58.2031C149.195 57.487 149.618 56.862 150.152 56.3281C150.686 55.7943 151.311 55.3776 152.027 55.0781C152.743 54.7656 153.505 54.6094 154.312 54.6094H155.914C156.721 54.6094 157.483 54.7656 158.199 55.0781C158.915 55.3776 159.54 55.7943 160.074 56.3281C160.608 56.862 161.025 57.487 161.324 58.2031C161.637 58.9193 161.793 59.681 161.793 60.4883V69.5117ZM159.391 60.3516C159.391 59.8698 159.299 59.4206 159.117 59.0039C158.935 58.5742 158.688 58.2031 158.375 57.8906C158.062 57.5781 157.691 57.3307 157.262 57.1484C156.845 56.9661 156.396 56.875 155.914 56.875H154.312C153.831 56.875 153.375 56.9661 152.945 57.1484C152.529 57.3307 152.164 57.5781 151.852 57.8906C151.539 58.2031 151.292 58.5742 151.109 59.0039C150.927 59.4206 150.836 59.8698 150.836 60.3516V69.6484C150.836 70.1302 150.927 70.5859 151.109 71.0156C151.292 71.4323 151.539 71.7969 151.852 72.1094C152.164 72.4219 152.529 72.6693 152.945 72.8516C153.375 73.0339 153.831 73.125 154.312 73.125H155.914C156.396 73.125 156.845 73.0339 157.262 72.8516C157.691 72.6693 158.062 72.4219 158.375 72.1094C158.688 71.7969 158.935 71.4323 159.117 71.0156C159.299 70.5859 159.391 70.1302 159.391 69.6484V60.3516ZM180.348 69.9219C180.348 70.7292 180.185 71.4714 179.859 72.1484C179.534 72.8125 179.091 73.3854 178.531 73.8672C177.971 74.349 177.32 74.7266 176.578 75C175.849 75.2604 175.081 75.3906 174.273 75.3906H172.672C171.865 75.3906 171.09 75.2409 170.348 74.9414C169.618 74.6289 168.974 74.2057 168.414 73.6719C167.867 73.138 167.424 72.513 167.086 71.7969C166.76 71.0807 166.598 70.319 166.598 69.5117V68.7109L169 68.3203V69.6484C169 70.1302 169.098 70.5859 169.293 71.0156C169.501 71.4323 169.775 71.7969 170.113 72.1094C170.452 72.4219 170.842 72.6693 171.285 72.8516C171.728 73.0339 172.19 73.125 172.672 73.125H174.273C174.755 73.125 175.217 73.0534 175.66 72.9102C176.103 72.7669 176.493 72.5651 176.832 72.3047C177.184 72.0312 177.457 71.7057 177.652 71.3281C177.861 70.9505 177.965 70.5208 177.965 70.0391C177.965 69.3229 177.809 68.737 177.496 68.2812C177.184 67.8255 176.767 67.4479 176.246 67.1484C175.738 66.8359 175.152 66.582 174.488 66.3867C173.837 66.1784 173.167 65.9766 172.477 65.7812C171.786 65.5729 171.109 65.3385 170.445 65.0781C169.794 64.8177 169.208 64.4792 168.688 64.0625C168.18 63.6328 167.77 63.099 167.457 62.4609C167.145 61.8229 166.988 61.0286 166.988 60.0781C166.988 59.2708 167.145 58.5352 167.457 57.8711C167.77 57.194 168.193 56.6146 168.727 56.1328C169.26 55.651 169.879 55.2799 170.582 55.0195C171.298 54.7461 172.06 54.6094 172.867 54.6094H174.273C175.081 54.6094 175.842 54.7656 176.559 55.0781C177.275 55.3776 177.9 55.7943 178.434 56.3281C178.967 56.862 179.384 57.487 179.684 58.2031C179.996 58.9193 180.152 59.681 180.152 60.4883V60.5664L177.75 60.957V60.3516C177.75 59.8698 177.659 59.4206 177.477 59.0039C177.294 58.5742 177.047 58.2031 176.734 57.8906C176.422 57.5781 176.051 57.3307 175.621 57.1484C175.204 56.9661 174.755 56.875 174.273 56.875H172.867C172.385 56.875 171.93 56.9466 171.5 57.0898C171.083 57.2331 170.719 57.4414 170.406 57.7148C170.094 57.9753 169.846 58.2943 169.664 58.6719C169.482 59.0495 169.391 59.4792 169.391 59.9609C169.391 60.651 169.547 61.2174 169.859 61.6602C170.172 62.0898 170.582 62.4544 171.09 62.7539C171.611 63.0534 172.197 63.3073 172.848 63.5156C173.512 63.7109 174.182 63.9193 174.859 64.1406C175.549 64.349 176.22 64.5898 176.871 64.8633C177.535 65.1367 178.121 65.4883 178.629 65.918C179.15 66.3477 179.566 66.888 179.879 67.5391C180.191 68.1771 180.348 68.9714 180.348 69.9219ZM198.707 69.9219C198.707 70.7292 198.544 71.4714 198.219 72.1484C197.893 72.8125 197.451 73.3854 196.891 73.8672C196.331 74.349 195.68 74.7266 194.938 75C194.208 75.2604 193.44 75.3906 192.633 75.3906H191.031C190.224 75.3906 189.449 75.2409 188.707 74.9414C187.978 74.6289 187.333 74.2057 186.773 73.6719C186.227 73.138 185.784 72.513 185.445 71.7969C185.12 71.0807 184.957 70.319 184.957 69.5117V68.7109L187.359 68.3203V69.6484C187.359 70.1302 187.457 70.5859 187.652 71.0156C187.861 71.4323 188.134 71.7969 188.473 72.1094C188.811 72.4219 189.202 72.6693 189.645 72.8516C190.087 73.0339 190.549 73.125 191.031 73.125H192.633C193.115 73.125 193.577 73.0534 194.02 72.9102C194.462 72.7669 194.853 72.5651 195.191 72.3047C195.543 72.0312 195.816 71.7057 196.012 71.3281C196.22 70.9505 196.324 70.5208 196.324 70.0391C196.324 69.3229 196.168 68.737 195.855 68.2812C195.543 67.8255 195.126 67.4479 194.605 67.1484C194.098 66.8359 193.512 66.582 192.848 66.3867C192.197 66.1784 191.526 65.9766 190.836 65.7812C190.146 65.5729 189.469 65.3385 188.805 65.0781C188.154 64.8177 187.568 64.4792 187.047 64.0625C186.539 63.6328 186.129 63.099 185.816 62.4609C185.504 61.8229 185.348 61.0286 185.348 60.0781C185.348 59.2708 185.504 58.5352 185.816 57.8711C186.129 57.194 186.552 56.6146 187.086 56.1328C187.62 55.651 188.238 55.2799 188.941 55.0195C189.658 54.7461 190.419 54.6094 191.227 54.6094H192.633C193.44 54.6094 194.202 54.7656 194.918 55.0781C195.634 55.3776 196.259 55.7943 196.793 56.3281C197.327 56.862 197.743 57.487 198.043 58.2031C198.355 58.9193 198.512 59.681 198.512 60.4883V60.5664L196.109 60.957V60.3516C196.109 59.8698 196.018 59.4206 195.836 59.0039C195.654 58.5742 195.406 58.2031 195.094 57.8906C194.781 57.5781 194.41 57.3307 193.98 57.1484C193.564 56.9661 193.115 56.875 192.633 56.875H191.227C190.745 56.875 190.289 56.9466 189.859 57.0898C189.443 57.2331 189.078 57.4414 188.766 57.7148C188.453 57.9753 188.206 58.2943 188.023 58.6719C187.841 59.0495 187.75 59.4792 187.75 59.9609C187.75 60.651 187.906 61.2174 188.219 61.6602C188.531 62.0898 188.941 62.4544 189.449 62.7539C189.97 63.0534 190.556 63.3073 191.207 63.5156C191.871 63.7109 192.542 63.9193 193.219 64.1406C193.909 64.349 194.579 64.5898 195.23 64.8633C195.895 65.1367 196.48 65.4883 196.988 65.918C197.509 66.3477 197.926 66.888 198.238 67.5391C198.551 68.1771 198.707 68.9714 198.707 69.9219ZM203.922 50.1953V46.9922H206.715V50.1953H203.922ZM204.117 75V55H206.52V75H204.117ZM225.504 69.5117C225.504 70.319 225.348 71.0807 225.035 71.7969C224.736 72.513 224.319 73.138 223.785 73.6719C223.251 74.2057 222.626 74.6289 221.91 74.9414C221.194 75.2409 220.432 75.3906 219.625 75.3906H218.023C217.216 75.3906 216.454 75.2409 215.738 74.9414C215.022 74.6289 214.397 74.2057 213.863 73.6719C213.329 73.138 212.906 72.513 212.594 71.7969C212.294 71.0807 212.145 70.319 212.145 69.5117V46.9922H214.547V56.6797C215.094 56.0286 215.751 55.5208 216.52 55.1562C217.288 54.7917 218.121 54.6094 219.02 54.6094H219.625C220.432 54.6094 221.194 54.7656 221.91 55.0781C222.626 55.3776 223.251 55.7943 223.785 56.3281C224.319 56.862 224.736 57.487 225.035 58.2031C225.348 58.9193 225.504 59.681 225.504 60.4883V69.5117ZM223.102 60.3516C223.102 59.8698 223.01 59.4206 222.828 59.0039C222.646 58.5742 222.398 58.2031 222.086 57.8906C221.773 57.5781 221.402 57.3307 220.973 57.1484C220.556 56.9661 220.107 56.875 219.625 56.875H218.023C217.542 56.875 217.086 56.9661 216.656 57.1484C216.24 57.3307 215.875 57.5781 215.562 57.8906C215.25 58.2031 215.003 58.5742 214.82 59.0039C214.638 59.4206 214.547 59.8698 214.547 60.3516V69.6484C214.547 70.1302 214.638 70.5859 214.82 71.0156C215.003 71.4323 215.25 71.7969 215.562 72.1094C215.875 72.4219 216.24 72.6693 216.656 72.8516C217.086 73.0339 217.542 73.125 218.023 73.125H219.625C220.107 73.125 220.556 73.0339 220.973 72.8516C221.402 72.6693 221.773 72.4219 222.086 72.1094C222.398 71.7969 222.646 71.4323 222.828 71.0156C223.01 70.5859 223.102 70.1302 223.102 69.6484V60.3516ZM230.719 75V46.9922H233.121V75H230.719ZM252.105 69.5117C252.105 70.319 251.949 71.0807 251.637 71.7969C251.337 72.513 250.921 73.138 250.387 73.6719C249.853 74.2057 249.228 74.6289 248.512 74.9414C247.796 75.2409 247.034 75.3906 246.227 75.3906H244.625C243.818 75.3906 243.056 75.2409 242.34 74.9414C241.624 74.6289 240.999 74.2057 240.465 73.6719C239.931 73.138 239.508 72.513 239.195 71.7969C238.896 71.0807 238.746 70.319 238.746 69.5117V60.4883C238.746 59.681 238.896 58.9193 239.195 58.2031C239.508 57.487 239.931 56.862 240.465 56.3281C240.999 55.7943 241.624 55.3776 242.34 55.0781C243.056 54.7656 243.818 54.6094 244.625 54.6094H246.227C247.034 54.6094 247.796 54.7656 248.512 55.0781C249.228 55.3776 249.853 55.7943 250.387 56.3281C250.921 56.862 251.337 57.487 251.637 58.2031C251.949 58.9193 252.105 59.681 252.105 60.4883V65.1953H241.148V69.6484C241.148 70.1302 241.24 70.5859 241.422 71.0156C241.604 71.4323 241.852 71.7969 242.164 72.1094C242.477 72.4219 242.841 72.6693 243.258 72.8516C243.688 73.0339 244.143 73.125 244.625 73.125H246.227C246.708 73.125 247.158 73.0339 247.574 72.8516C248.004 72.6693 248.375 72.4219 248.688 72.1094C249 71.7969 249.247 71.4323 249.43 71.0156C249.612 70.5859 249.703 70.1302 249.703 69.6484V68.3203L252.105 68.7109V69.5117ZM249.703 60.3516C249.703 59.8698 249.612 59.4206 249.43 59.0039C249.247 58.5742 249 58.2031 248.688 57.8906C248.375 57.5781 248.004 57.3307 247.574 57.1484C247.158 56.9661 246.708 56.875 246.227 56.875H244.625C244.143 56.875 243.688 56.9661 243.258 57.1484C242.841 57.3307 242.477 57.5781 242.164 57.8906C241.852 58.2031 241.604 58.5742 241.422 59.0039C241.24 59.4206 241.148 59.8698 241.148 60.3516V63.3203H249.703V60.3516Z" fill="white"/>
<g filter="url(#filter0_dd)">
<path d="M62.5496 94.5167C61.8214 99.9782 59.6616 104.448 56.17 108C51.222 105.415 47.942 100.592 45.9628 94.0208C44.3632 89.0118 44.9172 84.195 46.0312 79.434C46.274 78.3863 46.5478 77.3387 46.8341 76.291C46.8341 76.291 50.0395 67.9903 54.9128 60.793C57.7758 65.7213 59.9604 70.9907 61.2861 76.7002C62.5682 82.2051 63.0475 88.1129 62.5496 94.5167Z" fill="url(#paint0_linear)"/>
<path d="M62.5496 94.5167C61.8214 99.9782 59.6616 104.448 56.17 108C51.222 105.415 47.942 100.592 45.9628 94.0208C44.3632 89.0118 44.9172 84.195 46.0312 79.434C46.274 78.3863 46.5478 77.3387 46.8341 76.291C46.8341 76.291 50.0395 67.9903 54.9128 60.793C57.7758 65.7213 59.9604 70.9907 61.2861 76.7002C62.5682 82.2051 63.0475 88.1129 62.5496 94.5167Z" fill="url(#paint1_linear)"/>
<path d="M56.5312 107.62L56.5312 107.626C56.4067 107.756 56.2947 107.874 56.1702 107.998C51.2222 105.413 47.9422 100.59 45.963 94.0185C44.9173 90.7391 44.7929 87.5465 45.1414 84.3911C45.3281 82.7297 45.6455 81.0807 46.0314 79.4317C46.2742 78.3841 46.548 77.3364 46.8343 76.2887C46.8343 76.2887 47.4754 74.6211 48.6206 72.1353C48.633 72.1291 48.633 72.1229 48.633 72.1167C48.8073 71.7447 48.9878 71.3603 49.1745 70.9574C49.2492 70.8148 49.3177 70.6722 49.3861 70.5235C49.6537 69.9717 49.94 69.389 50.245 68.7877C50.5562 68.1801 50.8861 67.554 51.2284 66.9155C52.2989 64.938 53.525 62.8426 54.8881 60.8279C54.8881 60.8341 54.8943 60.8341 54.8943 60.8403C52.747 67.4548 51.4587 73.5859 50.967 79.2644C49.9898 90.33 52.0188 99.6846 56.5312 107.62Z" fill="url(#paint2_linear)"/>
<path d="M61.1758 76.3659C53.844 77.0416 48.4914 79.7321 45.1243 84.4187C45.3048 82.7573 45.6284 81.1083 46.0081 79.4655C46.2508 78.4178 46.5247 77.3702 46.811 76.3225C46.811 76.3225 50.0163 68.0218 54.8896 60.8245C57.6904 65.6475 59.8439 70.799 61.1758 76.3659Z" fill="url(#paint3_linear)"/>
<path d="M84.7833 61.8344C78.3851 68.5792 70.3376 73.7493 61.2817 76.7002C59.9561 70.9907 57.7715 65.7213 54.9084 60.793C54.9396 60.8116 54.9769 60.8364 55.008 60.855C60.7278 64.8163 67.1322 66.8868 74.4205 66.4963C78.049 66.1801 81.105 65.1014 83.47 63.1053L84.5841 62.0142L84.6464 61.9584C84.6962 61.9212 84.7397 61.8778 84.7833 61.8344Z" fill="url(#paint4_linear)"/>
<path d="M84.7833 61.8344C78.3851 68.5792 70.3376 73.7493 61.2817 76.7002C59.9561 70.9907 57.7715 65.7213 54.9084 60.793C54.9396 60.8116 54.9769 60.8364 55.008 60.855C60.7278 64.8163 67.1322 66.8868 74.4205 66.4963C78.049 66.1801 81.105 65.1014 83.47 63.1053L84.5841 62.0142L84.6464 61.9584C84.6962 61.9212 84.7397 61.8778 84.7833 61.8344Z" fill="url(#paint5_linear)"/>
<path d="M84.7496 61.8684C82.4343 64.3047 79.9074 66.5364 77.1938 68.5325C77.1875 68.5325 77.1875 68.5325 77.1813 68.5387C70.9263 70.7147 63.2646 67.2307 54.8748 60.8269C54.9059 60.8455 54.9432 60.8703 54.9743 60.8889C60.6941 64.8502 67.0985 66.9207 74.3868 66.5302C78.0153 66.214 81.0713 65.1354 83.4364 63.1392L83.5484 63.0276C83.5546 63.0214 83.5671 63.0152 83.5733 63.009L84.6127 61.9924C84.6625 61.9552 84.706 61.9118 84.7496 61.8684Z" fill="url(#paint6_linear)"/>
<path d="M63.8808 75.798C63.0157 76.1328 62.1381 76.4427 61.2481 76.7341C59.9224 71.0246 57.7378 65.7553 54.8748 60.8269C58.6838 65.1602 62.1007 69.8158 63.8808 75.798Z" fill="url(#paint7_linear)"/>
<path d="M73.0561 39.7652L42.7394 24.044C41.227 17.7456 40.5299 11.3976 40.5983 5L73.3113 34.7996C72.8445 36.3618 72.8009 38.0232 73.0561 39.7652Z" fill="url(#paint8_linear)"/>
<path d="M73.0535 39.7654L72.2133 39.3315L42.7368 24.0442C42.3011 22.2217 41.9339 20.3991 41.6289 18.5703L63.6429 29.8467L73.3087 34.7999C72.8419 36.3621 72.7983 38.0235 73.0535 39.7654Z" fill="url(#paint9_linear)"/>
<path d="M72.2878 39.4148L42.7054 24.0779C41.193 17.7795 40.4959 11.4315 40.5644 5.03394L44.2241 8.36911L72.2878 39.4148Z" fill="url(#paint10_linear)"/>
<path d="M119 40.4347L93.1459 34.1982C90.6688 35.1839 89.1315 36.4238 87.8618 38.6431L119 40.4347Z" fill="url(#paint11_linear)"/>
<path d="M119 40.4347L93.1459 34.1982C90.6688 35.1839 89.1315 36.4238 87.8618 38.6431L119 40.4347Z" fill="url(#paint12_linear)"/>
<path d="M93.2296 34.2248C93.0808 34.2678 92.9381 34.3168 92.8017 34.3782C92.6839 34.4273 92.5599 34.4763 92.4482 34.5254C91.8591 34.7585 91.3071 35.0652 90.7924 35.421C90.6374 35.5315 90.4823 35.6419 90.3335 35.7584C90.2653 35.8136 90.1909 35.8689 90.1227 35.9302C89.9862 36.0406 89.856 36.1572 89.7258 36.2799C89.6141 36.3842 89.5087 36.4884 89.4033 36.605C89.3847 36.6234 89.3723 36.6418 89.3475 36.6602C87.7475 38.3104 86.7614 40.5556 86.7614 43.0339C86.7614 44.1933 86.9785 45.3037 87.3754 46.3281C87.4188 46.4447 87.4622 46.5612 87.518 46.6778C87.6979 47.0949 87.9087 47.4998 88.1506 47.8863L71.0219 38.6846C70.9103 38.065 70.8545 37.4331 70.8545 36.7829C70.8545 35.74 70.9971 34.7278 71.27 33.7709C72.5971 29.0412 76.9816 25.5691 82.1909 25.5691C87.5614 25.5691 92.0575 29.262 93.2296 34.2248Z" fill="url(#paint13_linear)"/>
<path d="M92.4639 34.513C91.8748 34.7462 91.3228 35.0529 90.8081 35.4087C90.6531 35.5191 90.498 35.6295 90.3492 35.7461C90.312 35.7767 90.2686 35.8136 90.2252 35.8504C90.1197 35.9301 90.0205 36.016 89.9213 36.108C89.9151 36.108 89.9089 36.1141 89.9027 36.1203C89.8655 36.1448 89.8345 36.1755 89.8035 36.2062C89.7848 36.2184 89.7724 36.2307 89.76 36.243C89.7104 36.292 89.6608 36.335 89.6112 36.3841C89.5988 36.3963 89.5864 36.4086 89.574 36.427C89.481 36.5129 89.3879 36.6049 89.3011 36.703C89.2143 36.7889 89.1337 36.8748 89.0655 36.9668C89.0407 36.9852 89.0283 36.9975 89.0221 37.0159C88.9848 37.0527 88.9476 37.0895 88.9166 37.1325C88.9042 37.1509 88.8856 37.1693 88.8732 37.1938C88.8236 37.249 88.7802 37.3042 88.7368 37.3594C88.6934 37.4146 88.65 37.4699 88.6066 37.5312C88.5321 37.6355 88.4577 37.7459 88.3771 37.8563C88.3709 37.8625 88.3647 37.8747 88.3523 37.887C88.3337 37.9177 88.3151 37.9545 88.2841 37.9913C88.2779 38.0036 88.2655 38.0158 88.2593 38.0281C88.2407 38.0588 88.2221 38.0894 88.2035 38.114C88.2035 38.1201 88.1973 38.1262 88.1973 38.1324C88.1786 38.1631 88.1538 38.1999 88.129 38.2367C88.1166 38.2489 88.1104 38.2551 88.1042 38.2673C88.0484 38.3532 87.9926 38.4391 87.943 38.5311C87.9368 38.5373 87.9306 38.5434 87.9306 38.5557C87.9182 38.5741 87.9058 38.5925 87.8996 38.6109C87.8934 38.617 87.8872 38.6293 87.881 38.6354C87.881 38.6415 87.8748 38.6415 87.8748 38.6477C87.8686 38.6538 87.8686 38.6599 87.8624 38.6661L87.881 38.6661C87.8686 38.6906 87.8562 38.7152 87.8438 38.7336C87.7693 38.8746 87.7011 39.0157 87.6329 39.163C87.5647 39.2918 87.5089 39.4267 87.4531 39.5678C87.4035 39.6844 87.3538 39.8132 87.3166 39.9359C87.2422 40.1322 87.174 40.3347 87.1244 40.5432C87.0934 40.623 87.0748 40.6966 87.0562 40.7763C87.019 40.9236 86.988 41.0647 86.9569 41.2119C86.9383 41.2855 86.9259 41.3591 86.9197 41.4327C86.8887 41.5738 86.8701 41.7149 86.8515 41.856C86.8329 42.0216 86.8143 42.1811 86.8019 42.3468C86.7833 42.5676 86.7771 42.7946 86.7771 43.0215C86.7771 44.181 86.9942 45.2913 87.3911 46.3158C87.4345 46.4323 87.4779 46.5489 87.5337 46.6654C87.7135 47.0826 87.9244 47.4874 88.1662 47.8739L86.4918 46.9721L86.4856 46.966L78.312 42.5799C78.5105 41.8008 78.7461 41.0831 79.0252 40.4328C81.3012 35.0161 86.2314 33.7524 92.4639 34.513Z" fill="url(#paint14_linear)"/>
<path d="M86.6097 47.1071L70.988 38.7152C70.8764 38.0956 70.8206 37.4637 70.8206 36.8135C70.8206 35.7706 70.9632 34.7584 71.2361 33.8015C71.2485 33.7585 71.2609 33.7094 71.2733 33.6665L86.6097 47.1071Z" fill="url(#paint15_linear)"/>
<path d="M89.1064 52.7884C89.1064 55.7709 88.0921 58.5201 86.3851 60.7171C86.3789 60.7293 86.3665 60.7477 86.3542 60.76C86.3542 60.76 86.3542 60.7661 86.3418 60.7661C85.9521 61.2141 85.5439 61.6621 85.1234 62.0978L84.8017 62.4231L84.7399 62.4783L83.6328 63.5584C81.2825 65.5344 78.2458 66.6022 74.64 66.9151C67.3975 67.3018 61.0332 65.2521 55.3493 61.3307C55.3184 61.3123 55.2812 61.2878 55.2503 61.2694L55.2503 61.2632C55.2318 61.2509 55.2194 61.2448 55.2008 61.2325C52.1764 59.1276 49.3499 56.495 46.6842 53.4144C37.3018 44.8966 30.7829 30.6471 25 14.9187L71.0342 38.6433L71.0404 38.6433L88.123 47.8483L88.1354 47.8606C88.7601 49.3825 89.1064 51.0394 89.1064 52.7884Z" fill="url(#paint16_linear)"/>
<path d="M84.7399 62.4783L84.709 62.509L84.6657 62.5458L84.6038 62.601L83.6328 63.5584C83.6143 63.5706 83.5957 63.589 83.5772 63.6074C83.571 63.6136 83.5648 63.6197 83.5524 63.6259C83.2865 63.8468 83.0081 64.0554 82.7175 64.2579C82.4391 64.4482 82.1546 64.6323 81.8639 64.8102C79.8229 65.9946 77.3984 66.6758 74.64 66.9151C67.3975 67.3018 61.0332 65.2521 55.3493 61.3307C55.3184 61.3123 55.2813 61.2878 55.2503 61.2694L55.2503 61.2632C55.2318 61.2509 55.2194 61.2448 55.2008 61.2325C52.5104 59.3608 49.9746 57.0657 47.5749 54.4146C47.2718 54.0894 46.9749 53.7519 46.6842 53.4144C37.3018 44.8966 30.7829 30.6471 25 14.9187C39.6829 25.6825 56.7842 39.3551 75.141 54.5128L75.1471 54.5128C78.3076 57.1271 81.5114 59.7843 84.7399 62.4783Z" fill="url(#paint17_linear)"/>
<path d="M89.0754 52.8191C89.0754 55.8016 88.0611 58.5508 86.3541 60.7478C86.3479 60.7601 86.3355 60.7785 86.3232 60.7908C86.3232 60.7908 86.3232 60.7969 86.3108 60.7969C85.9211 61.2449 85.5129 61.6928 85.0924 62.1286L84.7708 62.4538L84.7089 62.509L84.6347 62.5827L83.6018 63.5891C83.5956 63.5952 83.5833 63.6014 83.5771 63.6075C81.233 65.5713 78.2024 66.6329 74.609 66.9459C67.3665 67.3325 61.0022 65.2828 55.3183 61.3615C55.2874 61.3431 55.2502 61.3185 55.2193 61.3001L55.2193 61.294C55.2008 61.2817 55.1884 61.2755 55.1698 61.2633C52.4609 59.3793 49.9065 57.0658 47.4944 54.3901C61.7382 59.3363 75.2151 56.6362 88.1044 47.8914C88.7291 49.4133 89.0754 51.0702 89.0754 52.8191Z" fill="url(#paint18_linear)"/>
</g>
<defs>
<filter id="filter0_dd" x="0" y="0" width="144" height="153" filterUnits="userSpaceOnUse" color-interpolation-filters="sRGB">
<feFlood flood-opacity="0" result="BackgroundImageFix"/>
<feColorMatrix in="SourceAlpha" type="matrix" values="0 0 0 0 0 0 0 0 0 0 0 0 0 0 0 0 0 0 127 0"/>
<feOffset dy="10"/>
<feGaussianBlur stdDeviation="5"/>
<feColorMatrix type="matrix" values="0 0 0 0 1 0 0 0 0 1 0 0 0 0 1 0 0 0 0.04 0"/>
<feBlend mode="normal" in2="BackgroundImageFix" result="effect1_dropShadow"/>
<feColorMatrix in="SourceAlpha" type="matrix" values="0 0 0 0 0 0 0 0 0 0 0 0 0 0 0 0 0 0 127 0"/>
<feOffset dy="20"/>
<feGaussianBlur stdDeviation="12.5"/>
<feColorMatrix type="matrix" values="0 0 0 0 1 0 0 0 0 1 0 0 0 0 1 0 0 0 0.1 0"/>
<feBlend mode="normal" in2="effect1_dropShadow" result="effect2_dropShadow"/>
<feBlend mode="normal" in="SourceGraphic" in2="effect2_dropShadow" result="shape"/>
</filter>
<linearGradient id="paint0_linear" x1="44.9663" y1="91.4791" x2="63.0067" y2="86.7949" gradientUnits="userSpaceOnUse">
<stop stop-color="#026BC5"/>
<stop offset="1" stop-color="#1EA6F2"/>
</linearGradient>
<linearGradient id="paint1_linear" x1="59.9037" y1="98.2982" x2="42.4849" y2="93.9262" gradientUnits="userSpaceOnUse">
<stop stop-color="white" stop-opacity="0.28"/>
<stop offset="1" stop-opacity="0"/>
</linearGradient>
<linearGradient id="paint2_linear" x1="42.7881" y1="62.0367" x2="57.9282" y2="107.018" gradientUnits="userSpaceOnUse">
<stop stop-color="#024DB3"/>
<stop offset="1" stop-color="#005DA6" stop-opacity="0.49"/>
</linearGradient>
<linearGradient id="paint3_linear" x1="46.2128" y1="69.1624" x2="61.1264" y2="76.6489" gradientUnits="userSpaceOnUse">
<stop stop-color="#012F53"/>
<stop offset="1" stop-color="#1782CC" stop-opacity="0.05"/>
</linearGradient>
<linearGradient id="paint4_linear" x1="71.9931" y1="76.9109" x2="56.4914" y2="62.2812" gradientUnits="userSpaceOnUse">
<stop stop-color="#9E00FF"/>
<stop offset="1" stop-color="#00B2FF"/>
</linearGradient>
<linearGradient id="paint5_linear" x1="45.2302" y1="47.4647" x2="64.4363" y2="69.8574" gradientUnits="userSpaceOnUse">
<stop offset="0.456853"/>
<stop offset="1" stop-opacity="0"/>
</linearGradient>
<linearGradient id="paint6_linear" x1="57.9867" y1="54.2867" x2="77.8524" y2="67.9988" gradientUnits="userSpaceOnUse">
<stop/>
<stop offset="1" stop-opacity="0"/>
</linearGradient>
<linearGradient id="paint7_linear" x1="57.3643" y1="47.7775" x2="59.3619" y2="76.7352" gradientUnits="userSpaceOnUse">
<stop/>
<stop offset="1" stop-opacity="0"/>
</linearGradient>
<linearGradient id="paint8_linear" x1="51.4545" y1="11.8191" x2="52.9982" y2="30.7278" gradientUnits="userSpaceOnUse">
<stop stop-color="#CF378C"/>
<stop offset="1" stop-color="#3B1868"/>
</linearGradient>
<linearGradient id="paint9_linear" x1="29.6682" y1="77.5311" x2="70.8429" y2="20.9621" gradientUnits="userSpaceOnUse">
<stop/>
<stop offset="1" stop-opacity="0"/>
</linearGradient>
<linearGradient id="paint10_linear" x1="81.0153" y1="72.2644" x2="21.9166" y2="-22.7948" gradientUnits="userSpaceOnUse">
<stop stop-opacity="0.54"/>
<stop offset="1" stop-opacity="0"/>
</linearGradient>
<linearGradient id="paint11_linear" x1="118.359" y1="40.3975" x2="87.8627" y2="38.5229" gradientUnits="userSpaceOnUse">
<stop stop-color="#FFF500"/>
<stop offset="1" stop-color="#F94B04"/>
</linearGradient>
<linearGradient id="paint12_linear" x1="102.488" y1="42.5672" x2="103.414" y2="37.6065" gradientUnits="userSpaceOnUse">
<stop/>
<stop offset="1" stop-opacity="0"/>
</linearGradient>
<linearGradient id="paint13_linear" x1="82.0421" y1="25.5691" x2="82.0421" y2="47.8863" gradientUnits="userSpaceOnUse">
<stop stop-color="#FFDC61"/>
<stop offset="1" stop-color="#EC3D06"/>
</linearGradient>
<linearGradient id="paint14_linear" x1="62.1384" y1="35.3841" x2="91.6633" y2="42.5963" gradientUnits="userSpaceOnUse">
<stop stop-opacity="0.4"/>
<stop offset="1" stop-opacity="0"/>
</linearGradient>
<linearGradient id="paint15_linear" x1="64.3089" y1="46.4262" x2="77.8371" y2="35.5475" gradientUnits="userSpaceOnUse">
<stop/>
<stop offset="1" stop-opacity="0"/>
</linearGradient>
<linearGradient id="paint16_linear" x1="25" y1="14.9187" x2="84.3176" y2="62.9312" gradientUnits="userSpaceOnUse">
<stop stop-color="#F02881"/>
<stop offset="1" stop-color="#2B175F"/>
</linearGradient>
<linearGradient id="paint17_linear" x1="27.474" y1="85.7978" x2="72.8611" y2="36.9636" gradientUnits="userSpaceOnUse">
<stop offset="0.0227511"/>
<stop offset="1" stop-opacity="0"/>
</linearGradient>
<linearGradient id="paint18_linear" x1="101.693" y1="76.8997" x2="59.2708" y2="43.4394" gradientUnits="userSpaceOnUse">
<stop/>
<stop offset="1" stop-opacity="0"/>
</linearGradient>
</defs>
</svg>
